# xmcd
#
# Track frame offsets:
#	150
#	19937
#	32400
#	42752
#	51780
#	68235
#	79555
#	104317
#	117510
#	132820
#	144880
#	159012
#	175707
#	190755
#
# Disc length: 2779 seconds
#
# Revision: 1
# Processed by: cddbd v1.5.1PL0 Copyright (c) Steve Scherf et al.
# Submitted via: CDex 1.50Beta5
#
DISCID=a60ad90e
DTITLE=yuo audia - ユーオディア
DYEAR=1900
DGENRE=
TTITLE0=yuo audia01
TTITLE1=yuo audia02
TTITLE2=yuo audia03
TTITLE3=yuo audia04
TTITLE4=yuo audia05
TTITLE5=シャロンの花
TTITLE6=的アリア
TTITLE7=yuo audia08
TTITLE8=yuo audia09
TTITLE9=小さな羊飼い
TTITLE10=yuo audia11
TTITLE11=yuo audia12
TTITLE12=ああ何と深い愛だろう
TTITLE13=黄金のエルサレム
EXTD=
EXTT0=
EXTT1=
EXTT2=
EXTT3=
EXTT4=
EXTT5=
EXTT6=
EXTT7=
EXTT8=
EXTT9=
EXTT10=
EXTT11=
EXTT12=
EXTT13=
PLAYORDER=
